# Blender v2.78 (sub 0) OBJ File: 'stuff.blend'
# www.blender.org
o Cube.030_Cube.038
v -1.046748 0.770386 0.000000
v -0.760584 0.631892 -0.221438
v -1.160090 0.551715 -0.285999
v -1.369167 0.585225 0.000000
v -1.160090 0.551715 0.285999
v -0.760584 0.631892 0.221438
v -0.738492 0.577706 -0.176811
v -1.350534 0.224429 -0.221438
v -1.350534 0.224430 0.221439
v -0.738492 0.577706 0.176811
v -0.839853 0.142495 0.221438
v -0.839853 0.142495 -0.221438
v -0.801785 0.186938 -0.176811
v -0.801785 0.186938 0.176811
v -1.368175 0.115082 -0.221438
v -1.368175 0.115082 0.221439
v -0.857493 0.033148 0.221438
v -0.857494 0.033148 -0.221438
v -1.374011 0.078705 -0.221438
v -1.374011 0.078705 0.221439
v -0.863330 -0.003229 0.221438
v -0.863330 -0.003229 -0.221438
v -1.456552 0.265546 -0.316729
v -1.456552 0.265546 0.316730
v -0.726110 0.148353 0.316729
v -0.726110 0.148353 -0.316729
v -1.464900 0.213515 -0.316729
v -1.464899 0.213515 0.316730
v -0.734457 0.096322 0.316729
v -0.734458 0.096322 -0.316729
vt 0.3986 0.8201
vt 0.3603 0.8701
vt 0.3493 0.7987
vt 0.4383 0.8701
vt 0.3994 0.7617
vt 0.4500 0.7987
vt 0.3493 0.9212
vt 0.3568 0.8701
vt 0.4129 0.8819
vt 0.3568 0.9718
vt 0.4129 0.9606
vt 0.9697 0.7994
vt 0.8996 0.7895
vt 0.9619 0.7897
vt 0.9619 0.7203
vt 0.9697 0.7124
vt 0.8917 0.7121
vt 0.8996 0.7201
vt 0.8615 0.1904
vt 0.8375 0.1276
vt 0.9287 0.1278
vt 0.9287 0.2159
vt 0.6503 0.9336
vt 0.6736 0.8714
vt 0.7413 0.9337
vt 0.7413 0.8457
vt 0.8917 0.7991
vt 0.4320 0.9606
vt 0.9566 0.3769
vt 0.9774 0.4886
vt 0.9566 0.4688
vt 0.9697 0.6930
vt 0.7413 0.9533
vt 0.6503 0.9533
vt 0.9287 0.1081
vt 0.4701 0.8954
vt 0.5485 0.8062
vt 0.5481 0.8954
vt 0.2011 0.6507
vt 0.2276 0.7467
vt 0.2011 0.7294
vt 0.4705 0.8062
vt 0.5650 0.7818
vt 0.9998 0.3276
vt 0.9759 0.2159
vt 0.9998 0.2356
vt 0.9882 0.8057
vt 0.9789 0.9371
vt 0.9789 0.8057
vt 0.6458 0.8835
vt 0.6367 0.9961
vt 0.6367 0.8835
vt 0.4320 0.8702
vt 0.4412 0.9827
vt 0.4320 0.9827
vt 0.9867 0.3571
vt 0.9774 0.3571
vt 0.0580 0.9037
vt 0.0341 0.9988
vt 0.0341 0.8862
vt 0.2011 0.6137
vt 0.2256 0.5028
vt 0.2256 0.6342
vt 0.9588 0.9181
vt 0.6122 0.9005
vt 0.6122 0.9793
vt 0.4320 0.8819
vt 0.8917 0.6927
vt 0.8375 0.1079
vt 0.2276 0.6342
vt 0.4534 0.7818
vt 0.9759 0.3474
vt 0.9882 0.9370
vt 0.6458 0.9961
vt 0.4412 0.8701
vt 0.9867 0.4886
vt 0.0580 0.9824
vt 0.2011 0.5218
vt 0.9588 0.8263
vn -0.0664 0.8052 -0.5893
vn 0.4356 0.9001 -0.0000
vn -0.4515 0.7861 -0.4221
vn -0.4515 0.7861 0.4221
vn -0.0664 0.8052 0.5893
vn -0.7468 0.3195 -0.5833
vn -0.7468 0.3195 0.5833
vn 0.9260 0.3775 -0.0000
vn 0.8152 -0.1320 -0.5639
vn -0.9987 -0.0516 0.0000
vn 0.7595 -0.6505 -0.0000
vn 0.9871 -0.1599 -0.0000
vn -0.0285 -0.1775 0.9837
vn 0.1647 -0.0267 0.9860
vn -0.0285 -0.1775 -0.9837
vn 0.1647 -0.0267 -0.9860
vn 0.8152 -0.1320 0.5639
vn -0.9872 0.1593 0.0000
vn -0.0992 -0.6181 0.7798
vn 0.9872 -0.1593 -0.0000
vn -0.0000 0.0000 -1.0000
vn 0.0000 -0.0000 1.0000
vn -0.1584 -0.9874 0.0000
vn 0.8623 0.5065 -0.0000
vn 0.6113 -0.7914 0.0000
vn 0.0916 0.5706 0.8161
vn -0.9874 0.1584 0.0000
vn 0.9874 -0.1584 -0.0000
vn -0.6593 0.7519 -0.0000
vn 0.0916 0.5706 -0.8161
vn -0.0992 -0.6181 -0.7798
vn -0.8292 -0.5590 0.0000
s off
f 1/1/1 2/2/1 3/3/1
f 2/2/2 1/1/2 6/4/2
f 1/1/3 3/3/3 4/5/3
f 1/1/4 4/5/4 5/6/4
f 1/1/5 5/6/5 6/4/5
f 4/7/6 3/8/6 8/9/6
f 5/10/7 4/7/7 9/11/7
f 2/12/8 10/13/8 7/14/8
f 2/12/9 13/15/9 12/16/9
f 4/7/10 8/9/10 9/11/10
f 11/17/11 13/15/11 14/18/11
f 7/14/12 14/18/12 13/15/12
f 5/19/13 9/20/13 11/21/13
f 6/22/14 5/19/14 11/21/14
f 8/23/15 3/24/15 12/25/15
f 2/26/16 12/25/16 3/24/16
f 11/17/17 10/13/17 6/27/17
f 8/9/18 16/28/18 9/11/18
f 21/29/19 28/30/19 20/31/19
f 11/17/20 18/32/20 12/16/20
f 8/23/21 18/33/21 15/34/21
f 9/20/22 17/35/22 11/21/22
f 19/36/23 21/37/23 20/38/23
f 15/39/24 24/40/24 16/41/24
f 22/42/25 29/43/25 21/37/25
f 18/44/26 23/45/26 15/46/26
f 23/47/21 30/48/21 27/49/21
f 24/50/27 27/51/27 28/52/27
f 25/53/28 30/54/28 26/55/28
f 25/56/22 28/30/22 29/57/22
f 18/58/29 25/59/29 26/60/29
f 17/61/30 24/62/30 25/63/30
f 22/64/31 27/49/31 30/48/31
f 20/65/32 27/51/32 19/66/32
f 2/12/8 6/27/8 10/13/8
f 2/12/9 7/14/9 13/15/9
f 11/17/11 12/16/11 13/15/11
f 7/14/12 10/13/12 14/18/12
f 11/17/17 14/18/17 10/13/17
f 8/9/18 15/67/18 16/28/18
f 21/29/19 29/57/19 28/30/19
f 11/17/20 17/68/20 18/32/20
f 8/23/21 12/25/21 18/33/21
f 9/20/22 16/69/22 17/35/22
f 19/36/23 22/42/23 21/37/23
f 15/39/24 23/70/24 24/40/24
f 22/42/25 30/71/25 29/43/25
f 18/44/26 26/72/26 23/45/26
f 23/47/21 26/73/21 30/48/21
f 24/50/27 23/74/27 27/51/27
f 25/53/28 29/75/28 30/54/28
f 25/56/22 24/76/22 28/30/22
f 18/58/29 17/77/29 25/59/29
f 17/61/30 16/78/30 24/62/30
f 22/64/31 19/79/31 27/49/31
f 20/65/32 28/52/32 27/51/32
