# Blender v2.78 (sub 0) OBJ File: 'stuff.blend'
# www.blender.org
o Cube.026_Cube.034
v 1.274587 -0.665483 -0.132818
v 1.512323 -1.140577 -0.132602
v 1.326446 -0.942814 0.132846
v 1.376421 -0.413282 0.132620
v 1.593188 -0.283786 -0.132972
v 1.677177 -0.733279 -0.296885
v 1.761087 -1.182003 0.132972
v 1.677097 -0.732510 0.296886
v 1.841952 -0.325212 0.132602
v 2.027829 -0.522975 -0.132846
v 1.977854 -1.052507 -0.132620
v 2.079688 -0.800306 0.132819
vt 0.9565 0.5752
vt 0.9568 0.6614
vt 0.9098 0.6249
vt 0.8295 0.5099
vt 0.7800 0.4297
vt 0.8503 0.4365
vt 0.9098 0.5313
vt 0.9568 0.5099
vt 0.8295 0.3571
vt 0.9096 0.4867
vt 0.1007 0.8862
vt 0.1467 0.9162
vt 0.0996 0.9595
vt 0.7801 0.7160
vt 0.7801 0.8106
vt 0.7220 0.7677
vt 0.5650 0.9230
vt 0.6122 0.8835
vt 0.6122 0.9667
vt 0.9096 0.3923
vt 0.1467 1.0000
vt 0.6999 0.8457
vt 0.6999 0.6927
vt 0.5666 0.9987
vt 0.2011 0.4778
vt 0.1535 0.4547
vt 0.1999 0.4100
vt 0.6503 0.7728
vt 0.1535 0.3606
vt 0.2011 0.3255
vn -0.8582 -0.4296 -0.2809
vn -0.3984 -0.1998 -0.8952
vn -0.9555 0.0903 0.2808
vn -0.7325 0.6113 -0.2998
vn -0.3240 0.2701 -0.9067
vn 0.0755 -0.3991 -0.9138
vn -0.4599 -0.8356 0.3005
vn -0.4441 0.0423 0.8950
vn -0.1766 0.9338 0.3111
vn 0.2032 0.3687 -0.9071
vn 0.1766 -0.9338 -0.3111
vn -0.2032 -0.3687 0.9071
vn -0.0755 0.3991 0.9138
vn 0.4599 0.8356 -0.3005
vn 0.4441 -0.0423 -0.8950
vn 0.7325 -0.6113 0.2998
vn 0.3240 -0.2701 0.9067
vn 0.3984 0.1998 0.8952
vn 0.8582 0.4296 0.2809
vn 0.9555 -0.0903 -0.2808
s off
f 1/1/1 2/2/1 3/3/1
f 2/4/2 1/5/2 6/6/2
f 1/1/3 3/3/3 4/7/3
f 1/1/4 4/7/4 5/8/4
f 1/5/5 5/9/5 6/6/5
f 2/4/6 6/6/6 11/10/6
f 3/11/7 2/12/7 7/13/7
f 4/14/8 3/15/8 8/16/8
f 5/17/9 4/18/9 9/19/9
f 6/6/10 5/9/10 10/20/10
f 2/12/11 11/21/11 7/13/11
f 3/15/12 7/22/12 8/16/12
f 4/14/13 8/16/13 9/23/13
f 5/17/14 9/19/14 10/24/14
f 6/6/15 10/20/15 11/10/15
f 7/25/16 11/26/16 12/27/16
f 8/16/17 7/22/17 12/28/17
f 9/23/18 8/16/18 12/28/18
f 10/29/19 9/30/19 12/27/19
f 11/26/20 10/29/20 12/27/20
