# Blender v2.78 (sub 0) OBJ File: 'stuff.blend'
# www.blender.org
o Cube.028_Cube.036
v 0.473149 -0.608819 -0.194840
v 0.473149 -1.114170 -0.194840
v 0.469011 -0.607753 0.156163
v 0.469011 -1.105896 0.071120
v 0.323176 -1.123843 0.112273
v 0.323176 -0.576629 0.205693
v 0.326174 -1.127949 -0.229655
v 0.326174 -0.572818 -0.229655
v 0.638457 -0.412951 -0.210287
v 0.649092 -0.412951 0.256991
v 0.500481 -0.479248 0.324350
v 0.500608 -0.479248 -0.297580
v 0.638457 0.092930 -0.210287
v 0.649092 0.092930 0.256991
v 0.500481 0.159227 0.324350
v 0.500608 0.159227 -0.297580
v 0.485127 0.258301 -0.258485
v 0.490564 0.258301 0.283488
v 0.360675 0.258301 0.283488
v 0.356490 0.258301 -0.276474
v 0.431893 -1.210361 -0.185510
v 0.428053 -1.201423 0.046448
v 0.292710 -1.226657 0.083175
v 0.295492 -1.231852 -0.217821
v 0.158875 -1.571357 -0.154804
v 0.224101 -1.559196 -0.172504
v 0.225952 -1.563504 -0.284293
v 0.160216 -1.573861 -0.299864
v -0.473149 -0.608819 -0.194840
v -0.473149 -1.114170 -0.194840
v -0.469011 -0.607753 0.156163
v -0.469011 -1.105896 0.071120
v -0.323176 -1.123843 0.112273
v -0.323176 -0.576629 0.205693
v -0.326174 -1.127949 -0.229655
v -0.326174 -0.572818 -0.229655
v 0.000000 -1.127949 -0.274578
v 0.000000 -0.572818 -0.274578
v 0.000000 -1.134718 0.175974
v 0.000000 -0.587504 0.269394
v -0.638457 -0.412951 -0.210287
v -0.649092 -0.412951 0.256991
v -0.500481 -0.479248 0.324350
v -0.500608 -0.479248 -0.297580
v 0.000000 -0.479248 -0.366896
v 0.000000 -0.479248 0.324350
v -0.638457 0.092930 -0.210287
v -0.649092 0.092930 0.256991
v -0.500481 0.159227 0.324350
v -0.500608 0.159227 -0.297580
v 0.000000 0.159227 -0.366896
v 0.000000 0.159227 0.324350
v -0.485127 0.258301 -0.258485
v -0.490564 0.258301 0.283488
v -0.360675 0.258301 0.283488
v -0.356490 0.258301 -0.276474
v 0.000000 0.258301 -0.325731
v 0.000000 0.258301 0.283488
v -0.431893 -1.210361 -0.185510
v -0.428053 -1.201423 0.046448
v -0.292710 -1.226657 0.083175
v -0.295492 -1.231852 -0.217821
v 0.000000 -1.231852 -0.259511
v 0.000000 -1.236750 0.142293
v -0.158875 -1.571357 -0.154804
v -0.224101 -1.559196 -0.172504
v -0.225952 -1.563504 -0.284293
v -0.160216 -1.573861 -0.299864
v 0.000000 -1.576221 -0.126313
v 0.000000 -1.573861 -0.319956
vt 0.2577 0.1721
vt 0.2538 0.1944
vt 0.2287 0.2067
vt 0.3417 0.1781
vt 0.2839 0.0797
vt 0.3417 0.0795
vt 0.2577 0.0823
vt 0.1713 0.0801
vt 0.1898 0.0664
vt 0.1970 0.0833
vt 0.2649 0.0653
vt 0.2892 0.0614
vt 0.1970 0.1717
vt 0.1713 0.1772
vt 0.1144 0.1944
vt 0.1144 0.1752
vt 0.7420 0.2046
vt 0.6607 0.2954
vt 0.6598 0.2055
vt 0.1144 0.0781
vt 0.7383 0.1698
vt 0.6904 0.0820
vt 0.7373 0.0800
vt 0.4526 0.4575
vt 0.4298 0.4773
vt 0.4338 0.4386
vt 0.2256 0.3578
vt 0.2011 0.4142
vt 0.2133 0.3255
vt 0.6764 0.1707
vt 0.2538 0.3078
vt 0.2562 0.3257
vt 0.2287 0.2966
vt 0.3426 0.3075
vt 0.2790 0.3256
vt 0.2026 0.1944
vt 0.2287 0.2962
vt 0.2026 0.3078
vt 0.1144 0.3078
vt 0.3426 0.1941
vt 0.5607 0.7588
vt 0.4653 0.7808
vt 0.4621 0.7579
vt 0.5607 0.6947
vt 0.7430 0.2945
vt 0.6557 0.3249
vt 0.2008 0.3255
vt 0.1779 0.3255
vt 0.1144 0.3255
vt 0.3415 0.0612
vt 0.3137 0.0001
vt 0.3421 0.0000
vt 0.1660 0.0618
vt 0.6944 0.0650
vt 0.7353 0.0629
vt 0.0041 0.8980
vt 0.0268 0.8869
vt 0.0297 0.8987
vt 0.0000 0.9263
vt 0.0341 0.9270
vt 0.1539 0.0031
vt 0.3020 0.0020
vt 0.1144 0.0600
vt 0.1424 0.0009
vt 0.7315 0.0010
vt 0.7512 0.0000
vt 0.4242 0.1725
vt 0.4300 0.1948
vt 0.3987 0.1786
vt 0.3987 0.0800
vt 0.0390 0.0664
vt 0.0574 0.0801
vt 0.0317 0.0833
vt 0.4168 0.0657
vt 0.4242 0.0827
vt 0.0317 0.1717
vt 0.0574 0.1772
vt 0.7553 0.0000
vt 0.8334 0.0936
vt 0.7512 0.0897
vt 0.7785 0.2156
vt 0.8293 0.1295
vt 0.8252 0.2192
vt 0.4298 0.5119
vt 0.4530 0.5300
vt 0.4323 0.5482
vt 0.2256 0.4733
vt 0.2177 0.4156
vt 0.7675 0.1265
vt 0.4269 0.3260
vt 0.4300 0.3082
vt 0.4534 0.2971
vt 0.4044 0.3259
vt 0.0262 0.3078
vt 0.0000 0.2062
vt 0.0262 0.1944
vt 0.4534 0.2072
vt 0.4653 0.6084
vt 0.5607 0.6306
vt 0.4621 0.6313
vt 0.4534 0.6946
vt 0.5607 0.6075
vt 0.4746 0.5802
vt 0.5569 0.5784
vt 0.0279 0.3255
vt 0.0000 0.2962
vt 0.0508 0.3255
vt 0.3701 0.0002
vt 0.3931 0.0616
vt 0.6211 0.7471
vt 0.5607 0.7715
vt 0.5607 0.7001
vt 0.0628 0.0618
vt 0.7821 0.2330
vt 0.0251 0.9662
vt 0.0029 0.9547
vt 0.0285 0.9549
vt 0.0749 0.0031
vt 0.3815 0.0022
vt 0.0864 0.0009
vt 0.8228 0.2365
vt 0.8179 0.2999
vt 0.2839 0.1783
vt 0.4526 0.4964
vt 0.3422 0.3254
vt 0.2287 0.2062
vt 0.5607 0.7818
vt 0.7512 0.3238
vt 0.0071 0.8862
vt 0.1144 0.0000
vt 0.8375 0.0039
vt 0.4530 0.4964
vt 0.2133 0.5028
vt 0.6211 0.7815
vt 0.0054 0.9662
vt 0.8375 0.3015
vn 0.6180 -0.5647 -0.5470
vn 0.1364 0.0000 -0.9906
vn 0.2305 0.0000 -0.9731
vn 0.2941 -0.3553 0.8873
vn 0.2538 -0.1831 -0.9498
vn 0.2864 -0.1612 0.9445
vn 0.1876 -0.4446 0.8759
vn 0.9997 0.0000 -0.0228
vn 0.1961 -0.1650 0.9666
vn 0.9999 0.0000 0.0156
vn 0.0345 -0.7972 0.6027
vn 0.0982 -0.6980 -0.7093
vn 0.7385 -0.6740 -0.0168
vn 0.6175 0.3703 -0.6939
vn 0.1269 0.3798 -0.9163
vn 0.4128 0.0000 0.9108
vn 0.0000 0.0000 1.0000
vn 0.1372 0.0000 -0.9905
vn 0.5350 0.0000 -0.8449
vn -0.0000 1.0000 0.0000
vn 0.7205 0.6933 -0.0164
vn 0.0000 0.3813 0.9245
vn 0.1226 0.1727 -0.9773
vn 0.1383 -0.1421 -0.9801
vn 0.1936 -0.3198 0.9275
vn 0.9197 -0.3915 0.0303
vn 0.1882 -0.9820 0.0187
vn 0.0284 -0.9995 -0.0122
vn 0.3111 -0.6188 0.7213
vn 0.2053 0.1508 -0.9670
vn 0.1776 -0.6049 0.7762
vn 0.8592 -0.5105 0.0339
vn -0.0316 -0.6251 -0.7799
vn -0.1364 0.0000 -0.9906
vn -0.2305 0.0000 -0.9731
vn -0.2941 -0.3553 0.8873
vn -0.2434 -0.1965 -0.9498
vn -0.2864 -0.1612 0.9445
vn -0.1876 -0.4446 0.8759
vn -0.9997 0.0000 -0.0228
vn -0.1961 -0.1650 0.9666
vn -0.9999 0.0000 0.0156
vn -0.0345 -0.7972 0.6027
vn -0.0976 -0.6990 -0.7085
vn -0.7646 -0.6444 0.0110
vn -0.6175 0.3703 -0.6939
vn -0.1269 0.3798 -0.9163
vn -0.4128 0.0000 0.9108
vn -0.1372 0.0000 -0.9905
vn -0.5350 0.0000 -0.8449
vn -0.7205 0.6933 -0.0164
vn -0.5155 0.3703 0.7728
vn -0.1374 0.1793 -0.9741
vn 1.0000 0.0000 0.0000
vn -0.1349 -0.1514 -0.9792
vn -0.1936 -0.3198 0.9275
vn -0.9162 -0.3997 0.0267
vn -0.1882 -0.9820 0.0187
vn 0.0022 -0.9998 0.0172
vn -0.3111 -0.6188 0.7213
vn -0.2053 0.1508 -0.9670
vn -0.1776 -0.6049 0.7762
vn -0.8592 -0.5105 0.0339
vn 0.0316 -0.6251 -0.7799
vn 0.3050 -0.3419 0.8889
vn 0.2434 -0.1965 -0.9498
vn 0.0000 -0.7730 0.6344
vn 0.9999 -0.0020 0.0118
vn 0.5262 -0.7203 0.4519
vn 0.0976 -0.6990 -0.7085
vn 0.7646 -0.6444 0.0110
vn 0.1280 0.3813 -0.9155
vn 0.1266 0.3806 -0.9160
vn 0.7343 0.6787 -0.0074
vn 0.5155 0.3703 0.7728
vn 0.1374 0.1793 -0.9741
vn 0.1349 -0.1514 -0.9792
vn 0.1986 -0.3072 0.9307
vn 0.9162 -0.3997 0.0267
vn 0.1461 -0.9884 0.0405
vn -0.0022 -0.9998 0.0172
vn 0.1576 -0.6127 0.7744
vn -0.6180 -0.5647 -0.5470
vn -0.3050 -0.3419 0.8889
vn -0.2538 -0.1831 -0.9498
vn -0.9999 -0.0020 0.0118
vn -0.5262 -0.7203 0.4519
vn -0.0982 -0.6980 -0.7093
vn -0.7385 -0.6740 -0.0168
vn -0.1280 0.3813 -0.9155
vn -0.1266 0.3806 -0.9160
vn -0.7343 0.6787 -0.0074
vn -0.1226 0.1727 -0.9773
vn -0.1383 -0.1421 -0.9801
vn -0.1986 -0.3072 0.9307
vn -0.9197 -0.3915 0.0303
vn -0.1461 -0.9884 0.0405
vn -0.0284 -0.9995 -0.0122
vn -0.1576 -0.6127 0.7744
s off
f 1/1/1 12/2/1 9/3/1
f 38/4/2 7/5/2 37/6/2
f 7/5/3 1/1/3 2/7/3
f 5/8/4 22/9/4 4/10/4
f 7/5/5 21/11/5 24/12/5
f 5/8/6 3/13/6 6/14/6
f 6/14/7 46/15/7 40/16/7
f 9/17/8 14/18/8 10/19/8
f 6/14/9 39/20/9 5/8/9
f 1/21/10 4/22/10 2/23/10
f 3/24/11 11/25/11 6/26/11
f 8/27/12 45/28/12 12/29/12
f 3/30/13 9/17/13 10/19/13
f 16/31/14 17/32/14 13/33/14
f 51/34/15 20/35/15 16/31/15
f 11/36/16 14/37/16 15/38/16
f 11/36/17 52/39/17 46/15/17
f 45/40/18 16/31/18 12/2/18
f 12/2/19 13/33/19 9/3/19
f 19/41/20 17/42/20 20/43/20
f 20/43/20 58/44/20 19/41/20
f 13/45/21 18/46/21 14/18/21
f 15/38/22 18/47/22 19/48/22
f 52/39/22 19/48/22 58/49/22
f 63/50/23 28/51/23 70/52/23
f 37/6/24 24/12/24 63/50/24
f 39/20/25 23/53/25 5/8/25
f 2/23/26 22/54/26 21/55/26
f 28/56/27 26/57/27 25/58/27
f 70/59/28 25/58/28 69/60/28
f 23/53/29 26/61/29 22/9/29
f 24/12/30 27/62/30 28/51/30
f 64/63/31 25/64/31 23/53/31
f 21/55/32 26/65/32 27/66/32
f 29/67/33 44/68/33 36/69/33
f 35/70/34 38/4/34 37/6/34
f 35/70/35 29/67/35 36/69/35
f 60/71/36 33/72/36 32/73/36
f 35/70/37 59/74/37 30/75/37
f 31/76/38 33/72/38 34/77/38
f 46/15/39 34/77/39 40/16/39
f 48/78/40 41/79/40 42/80/40
f 39/20/41 34/77/41 33/72/41
f 32/81/42 29/82/42 30/83/42
f 43/84/43 31/85/43 34/86/43
f 36/87/44 45/28/44 38/88/44
f 31/89/45 41/79/45 29/82/45
f 53/90/46 50/91/46 47/92/46
f 56/93/47 51/34/47 50/91/47
f 49/94/48 42/95/48 43/96/48
f 52/39/17 43/96/17 46/15/17
f 50/91/49 45/40/49 44/68/49
f 47/92/50 44/68/50 41/97/50
f 53/98/20 55/99/20 56/100/20
f 56/100/20 58/44/20 57/101/20
f 54/102/51 47/103/51 48/104/51
f 49/94/52 54/105/52 48/106/52
f 52/39/22 55/107/22 49/94/22
f 63/50/53 68/108/53 62/109/53
f 69/110/54 63/111/54 64/112/54
f 37/6/55 62/109/55 35/70/55
f 61/113/56 39/20/56 33/72/56
f 30/83/57 60/114/57 32/81/57
f 66/115/58 68/116/58 65/117/58
f 70/59/59 65/117/59 68/116/59
f 66/118/60 61/113/60 60/71/60
f 62/109/61 67/119/61 59/74/61
f 65/120/62 64/63/62 61/113/62
f 59/121/63 66/122/63 60/114/63
f 1/1/64 8/123/64 12/2/64
f 38/4/2 8/123/2 7/5/2
f 7/5/3 8/123/3 1/1/3
f 5/8/65 23/53/65 22/9/65
f 7/5/66 2/7/66 21/11/66
f 5/8/6 4/10/6 3/13/6
f 6/14/67 11/36/67 46/15/67
f 9/17/8 13/45/8 14/18/8
f 6/14/9 40/16/9 39/20/9
f 1/21/68 3/30/68 4/22/68
f 3/24/69 10/124/69 11/25/69
f 8/27/70 38/88/70 45/28/70
f 3/30/71 1/21/71 9/17/71
f 16/31/72 20/35/72 17/32/72
f 51/34/73 57/125/73 20/35/73
f 11/36/16 10/126/16 14/37/16
f 11/36/17 15/38/17 52/39/17
f 45/40/18 51/34/18 16/31/18
f 12/2/19 16/31/19 13/33/19
f 19/41/20 18/127/20 17/42/20
f 20/43/20 57/101/20 58/44/20
f 13/45/74 17/128/74 18/46/74
f 15/38/75 14/37/75 18/47/75
f 52/39/22 15/38/22 19/48/22
f 63/50/76 24/12/76 28/51/76
f 37/6/77 7/5/77 24/12/77
f 39/20/78 64/63/78 23/53/78
f 2/23/79 4/22/79 22/54/79
f 28/56/80 27/129/80 26/57/80
f 70/59/81 28/56/81 25/58/81
f 23/53/29 25/64/29 26/61/29
f 24/12/30 21/11/30 27/62/30
f 64/63/82 69/130/82 25/64/82
f 21/55/32 22/54/32 26/65/32
f 29/67/83 41/97/83 44/68/83
f 35/70/34 36/69/34 38/4/34
f 35/70/35 30/75/35 29/67/35
f 60/71/84 61/113/84 33/72/84
f 35/70/85 62/109/85 59/74/85
f 31/76/38 32/73/38 33/72/38
f 46/15/67 43/96/67 34/77/67
f 48/78/40 47/131/40 41/79/40
f 39/20/41 40/16/41 34/77/41
f 32/81/86 31/89/86 29/82/86
f 43/84/87 42/132/87 31/85/87
f 36/87/88 44/133/88 45/28/88
f 31/89/89 42/80/89 41/79/89
f 53/90/90 56/93/90 50/91/90
f 56/93/91 57/125/91 51/34/91
f 49/94/48 48/106/48 42/95/48
f 52/39/17 49/94/17 43/96/17
f 50/91/49 51/34/49 45/40/49
f 47/92/50 50/91/50 44/68/50
f 53/98/20 54/102/20 55/99/20
f 56/100/20 55/99/20 58/44/20
f 54/102/92 53/98/92 47/103/92
f 49/94/22 55/107/22 54/105/22
f 52/39/22 58/49/22 55/107/22
f 63/50/93 70/52/93 68/108/93
f 69/110/54 70/134/54 63/111/54
f 37/6/94 63/50/94 62/109/94
f 61/113/95 64/63/95 39/20/95
f 30/83/96 59/121/96 60/114/96
f 66/115/97 67/135/97 68/116/97
f 70/59/98 69/60/98 65/117/98
f 66/118/60 65/120/60 61/113/60
f 62/109/61 68/108/61 67/119/61
f 65/120/99 69/130/99 64/63/99
f 59/121/63 67/136/63 66/122/63
