# Blender v2.78 (sub 0) OBJ File: 'stuff.blend'
# www.blender.org
o Cube.031
v 0.856883 -1.102586 -0.352861
v 0.856883 -2.017787 -0.352861
v 0.849389 -1.100654 0.282815
v 0.849389 -2.002803 0.128800
v 0.585278 -2.035305 0.203329
v 0.585278 -1.044289 0.372515
v 0.590709 -2.042741 -0.415911
v 0.590709 -1.037387 -0.415911
v 1.156260 -0.747864 -0.380835
v 1.175520 -0.747864 0.465417
v 0.906383 -0.867930 0.587405
v 0.906612 -0.867930 -0.538923
v 1.156260 0.168298 -0.380835
v 1.175520 0.168298 0.465417
v 0.906383 0.288364 0.587405
v 0.906612 0.288364 -0.538923
v 0.878576 0.467789 -0.468122
v 0.888423 0.467789 0.513404
v 0.653191 0.467789 0.513404
v 0.645612 0.467789 -0.500702
v 0.782169 -2.191992 -0.335964
v 0.775214 -2.175804 0.084118
v 0.530104 -2.221504 0.150633
v 0.535144 -2.230912 -0.394478
v 0.904973 0.389405 -0.766490
v 1.154622 0.269339 -0.608402
v 0.643973 0.568830 -0.728268
v 0.876937 0.568830 -0.695689
v 1.026349 -0.579565 -0.902840
v 1.324782 -0.723093 -0.713859
v 1.024390 -0.458779 -1.174876
v 1.322823 -0.602307 -0.985895
v 1.298400 -2.109951 -0.875700
v 1.662658 -2.285137 -0.645036
v 1.296009 -1.962523 -1.207738
v 1.660267 -2.137709 -0.977074
v 1.338638 -4.041878 -1.225821
v 1.702896 -4.217065 -0.995157
v 1.336247 -3.894451 -1.557859
v 1.700504 -4.069637 -1.327195
v -0.856883 -1.102586 -0.352861
v -0.856883 -2.017787 -0.352861
v -0.849389 -1.100654 0.282815
v -0.849389 -2.002803 0.128800
v -0.585278 -2.035305 0.203329
v -0.585278 -1.044289 0.372515
v -0.590709 -2.042741 -0.415911
v -0.590709 -1.037387 -0.415911
v 0.000000 -2.042741 -0.497266
v 0.000000 -1.037387 -0.497266
v 0.000000 -2.055000 0.318692
v 0.000000 -1.063984 0.487879
v -1.156260 -0.747864 -0.380835
v -1.175520 -0.747864 0.465417
v -0.906383 -0.867930 0.587405
v -0.906612 -0.867930 -0.538923
v 0.000000 -0.867930 -0.664456
v 0.000000 -0.867930 0.587405
v -1.156260 0.168298 -0.380835
v -1.175520 0.168298 0.465417
v -0.906383 0.288364 0.587405
v -0.906612 0.288364 -0.538923
v 0.000000 0.288364 -0.664456
v 0.000000 0.288364 0.587405
v -0.878576 0.467789 -0.468122
v -0.888423 0.467789 0.513404
v -0.653191 0.467789 0.513404
v -0.645612 0.467789 -0.500702
v 0.000000 0.467789 -0.589907
v 0.000000 0.467789 0.513404
v -0.782169 -2.191992 -0.335964
v -0.775214 -2.175804 0.084118
v -0.530104 -2.221504 0.150633
v -0.535144 -2.230912 -0.394478
v 0.000000 -2.230912 -0.469980
v 0.000000 -2.239782 0.257697
v -0.904973 0.389405 -0.766490
v -1.154622 0.269339 -0.608402
v 0.000000 0.389405 -0.892023
v 0.000000 0.568830 -0.817473
v -0.643973 0.568830 -0.728268
v -0.876937 0.568830 -0.695689
v -1.026349 -0.579565 -0.902840
v -1.324782 -0.723093 -0.713859
v 0.000000 -0.579565 -1.052904
v -1.024390 -0.458779 -1.174876
v -1.322823 -0.602307 -0.985895
v 0.000000 -0.458779 -1.324940
v -1.298400 -2.109951 -0.875700
v -1.662658 -2.285137 -0.645036
v 0.000000 -2.109951 -1.058863
v -1.296009 -1.962523 -1.207738
v -1.660267 -2.137709 -0.977074
v 0.000000 -1.962523 -1.390902
v -1.338638 -4.041878 -1.225821
v -1.702896 -4.217065 -0.995157
v 0.000000 -4.041878 -1.408984
v -1.336247 -3.894451 -1.557859
v -1.700504 -4.069637 -1.327195
v 0.000000 -3.894451 -1.741022
vt 0.4727 0.6553
vt 0.4528 0.6463
vt 0.4686 0.6316
vt 0.3995 0.7056
vt 0.3128 0.7577
vt 0.3124 0.7056
vt 0.3947 0.7814
vt 0.3154 0.7814
vt 0.3477 0.6147
vt 0.3317 0.6289
vt 0.3252 0.6133
vt 0.3006 0.7750
vt 0.2967 0.7530
vt 0.3254 0.5331
vt 0.3480 0.5266
vt 0.3980 0.5075
vt 0.3983 0.5262
vt 0.8050 0.6918
vt 0.7317 0.7716
vt 0.7312 0.6917
vt 0.3981 0.6142
vt 0.8013 0.6638
vt 0.7587 0.5855
vt 0.8008 0.5840
vt 0.3190 0.5075
vt 0.4583 0.6753
vt 0.4172 0.7162
vt 0.7457 0.6641
vt 0.1472 0.0178
vt 0.2354 0.0948
vt 0.1451 0.0965
vt 0.0218 0.6819
vt 0.0071 0.7383
vt 0.0000 0.6819
vt 0.2964 0.4995
vt 0.3204 0.4085
vt 0.3994 0.4085
vt 0.1892 0.5105
vt 0.2908 0.5896
vt 0.1906 0.5906
vt 0.2822 0.6125
vt 0.2028 0.6133
vt 0.1095 0.7382
vt 0.0314 0.7588
vt 0.0288 0.7384
vt 0.1095 0.6809
vt 0.8055 0.7717
vt 0.7265 0.8004
vt 0.3226 0.3945
vt 0.3431 0.3945
vt 0.4001 0.3945
vt 0.1618 0.8976
vt 0.1250 0.9184
vt 0.1166 0.8982
vt 0.1645 0.8514
vt 0.1036 0.8530
vt 0.2964 0.7057
vt 0.3526 0.6316
vt 0.7623 0.5711
vt 0.7990 0.5696
vt 0.2269 0.0164
vt 0.2248 0.0000
vt 0.2498 0.0250
vt 0.2042 0.0004
vt 0.3687 0.0000
vt 0.4496 0.0839
vt 0.3593 0.0811
vt 0.0097 0.7587
vt 0.0275 0.7835
vt 0.8111 0.0886
vt 0.8013 0.2169
vt 0.7863 0.0807
vt 0.8316 0.0066
vt 0.8109 0.0000
vt 0.3459 0.0073
vt 0.3320 0.0899
vt 0.4478 0.2151
vt 0.3296 0.3838
vt 0.3335 0.2117
vt 0.1460 0.2279
vt 0.2630 0.3978
vt 0.1453 0.3999
vt 0.2627 0.1051
vt 0.2601 0.2259
vt 0.3003 0.2225
vt 0.5340 0.5422
vt 0.5177 0.4282
vt 0.5493 0.4274
vt 0.5416 0.3953
vt 0.5731 0.3945
vt 0.8316 0.2265
vt 0.7900 0.3879
vt 0.2935 0.2385
vt 0.2964 0.3945
vt 0.4236 0.7949
vt 0.4009 0.7941
vt 0.4245 0.7715
vt 0.3138 0.6545
vt 0.3962 0.6316
vt 0.4009 0.6545
vt 0.4669 0.6289
vt 0.4498 0.6147
vt 0.4733 0.6133
vt 0.3019 0.6383
vt 0.3169 0.6316
vt 0.4735 0.5331
vt 0.4501 0.5266
vt 0.5968 0.0376
vt 0.6672 0.1160
vt 0.5933 0.1137
vt 0.2316 0.9587
vt 0.2737 0.8838
vt 0.2737 0.9599
vt 0.4771 0.5075
vt 0.4351 0.7208
vt 0.4727 0.8147
vt 0.4023 0.8200
vt 0.0568 0.0948
vt 0.0692 0.0164
vt 0.0071 0.6254
vt 0.0288 0.6253
vt 0.4785 0.4085
vt 0.5014 0.4995
vt 0.2908 0.4311
vt 0.1906 0.4321
vt 0.2822 0.4104
vt 0.2028 0.4112
vt 0.0314 0.6048
vt 0.1095 0.6237
vt 0.5936 0.0045
vt 0.6706 0.0400
vt 0.4775 0.3945
vt 0.5025 0.4210
vt 0.4570 0.3945
vt 0.1144 0.7849
vt 0.1545 0.8055
vt 0.1094 0.8069
vt 0.2977 0.6595
vt 0.4451 0.6316
vt 0.2353 0.9710
vt 0.0719 0.0000
vt 0.0486 0.0250
vt 0.0920 0.0004
vt 0.5268 0.0000
vt 0.4485 0.0023
vt 0.0097 0.6050
vt 0.6793 0.0077
vt 0.6909 0.0323
vt 0.7615 0.0165
vt 0.7863 0.0052
vt 0.7827 0.0217
vt 0.7628 0.1021
vt 0.7554 0.2258
vt 0.7376 0.0959
vt 0.7142 0.2476
vt 0.6964 0.1198
vt 0.7206 0.1107
vt 0.5476 0.0073
vt 0.5382 0.0811
vt 0.7376 0.0911
vt 0.7050 0.0159
vt 0.5631 0.3838
vt 0.5600 0.2117
vt 0.0301 0.3978
vt 0.0342 0.2259
vt 0.0322 0.1051
vt 0.5630 0.0899
vt 0.5177 0.6590
vt 0.5493 0.6587
vt 0.5416 0.6891
vt 0.5731 0.6887
vt 0.7376 0.4103
vt 0.6847 0.2587
vt 0.7862 0.2333
vt 0.7554 0.3968
vt 0.0041 0.2385
vt 0.5902 0.2225
vt 0.3999 0.7577
vt 0.2975 0.4210
vt 0.2894 0.5095
vt 0.1095 0.7588
vt 0.8122 0.8004
vt 0.1596 0.9184
vt 0.3982 0.6312
vt 0.1475 0.0014
vt 0.0492 0.7837
vt 0.4474 0.3872
vt 0.5025 0.5428
vt 0.8202 0.3976
vt 0.2964 0.4104
vt 0.2181 0.8838
vt 0.4669 0.8487
vt 0.1095 0.6031
vt 0.1490 0.7837
vt 0.2720 0.9723
vt 0.6995 0.0000
vt 0.7651 0.0000
vt 0.7080 0.4215
vt 0.7863 0.4043
vt 0.0000 0.4104
vt 0.5933 0.3945
vn 0.6180 -0.5647 -0.5470
vn 0.1364 0.0000 -0.9906
vn 0.2305 0.0000 -0.9731
vn 0.2941 -0.3553 0.8873
vn 0.2538 -0.1831 -0.9498
vn 0.2864 -0.1612 0.9445
vn 0.1876 -0.4446 0.8759
vn 0.9997 0.0000 -0.0228
vn 0.1961 -0.1650 0.9666
vn 0.9999 0.0000 0.0156
vn 0.0345 -0.7972 0.6027
vn 0.0982 -0.6980 -0.7093
vn 0.7385 -0.6740 -0.0168
vn 0.1294 0.4508 -0.8832
vn -0.0561 0.9125 0.4052
vn 0.4128 0.0000 0.9108
vn 0.0000 0.0000 1.0000
vn 0.1372 0.0000 -0.9905
vn 0.5350 0.0000 -0.8449
vn -0.0000 1.0000 0.0000
vn 0.7205 0.6933 -0.0164
vn 0.0000 0.3813 0.9245
vn 0.1882 -0.9820 0.0187
vn 0.0320 -0.9994 -0.0122
vn 0.1383 -0.1421 -0.9801
vn 0.1936 -0.3198 0.9275
vn 0.9197 -0.3915 0.0303
vn 0.6175 0.3703 -0.6939
vn 0.1271 0.3800 -0.9162
vn -0.1327 -0.3988 0.9074
vn -0.0567 0.9123 0.4055
vn 0.6530 0.6939 0.3034
vn 0.9728 0.2143 0.0881
vn 0.9847 0.1619 0.0648
vn -0.6179 -0.3750 0.6910
vn 0.6205 0.4094 -0.6689
vn -0.1374 -0.1794 0.9741
vn 0.1337 0.1767 -0.9751
vn 0.5720 0.1210 -0.8113
vn -0.5620 -0.0853 0.8227
vn 0.1448 0.0434 -0.9885
vn -0.1397 -0.0073 0.9902
vn 0.0555 -0.9124 -0.4055
vn -0.1805 -0.8994 -0.3981
vn 0.9998 0.0205 0.0019
vn 0.5811 0.1568 -0.7986
vn -0.5811 -0.1568 0.7986
vn -0.0316 -0.6251 -0.7799
vn -0.1364 0.0000 -0.9906
vn -0.2305 0.0000 -0.9731
vn -0.2941 -0.3553 0.8873
vn -0.2434 -0.1965 -0.9498
vn -0.2864 -0.1612 0.9445
vn -0.1876 -0.4446 0.8759
vn -0.9997 0.0000 -0.0228
vn -0.1961 -0.1650 0.9666
vn -0.9999 0.0000 0.0156
vn -0.0345 -0.7972 0.6027
vn -0.0976 -0.6990 -0.7085
vn -0.7646 -0.6444 0.0110
vn -0.1231 0.4445 -0.8873
vn 0.0560 0.9124 0.4055
vn -0.4128 0.0000 0.9108
vn -0.1372 0.0000 -0.9905
vn -0.5350 0.0000 -0.8449
vn -0.7205 0.6933 -0.0164
vn -0.5155 0.3703 0.7728
vn -0.1882 -0.9820 0.0187
vn 0.0024 -0.9998 0.0172
vn -0.1349 -0.1514 -0.9792
vn -0.1936 -0.3198 0.9275
vn -0.9162 -0.3997 0.0267
vn -0.6175 0.3703 -0.6939
vn -0.1271 0.3800 -0.9162
vn 0.1254 -0.4053 0.9056
vn 0.0567 0.9123 0.4055
vn -0.6530 0.6939 0.3034
vn 1.0000 0.0000 0.0000
vn -0.9728 0.2143 0.0881
vn -0.9847 0.1619 0.0648
vn 0.6179 -0.3750 0.6910
vn -0.6205 0.4094 -0.6689
vn 0.1374 -0.1794 0.9741
vn -0.1377 0.1794 -0.9741
vn -0.5720 0.1210 -0.8113
vn 0.5620 -0.0853 0.8227
vn -0.1448 0.0434 -0.9885
vn 0.1447 -0.0039 0.9895
vn -0.0555 -0.9124 -0.4055
vn 0.1805 -0.8994 -0.3981
vn -0.9998 0.0205 0.0019
vn -0.5811 0.1568 -0.7986
vn 0.5811 -0.1568 0.7986
vn 0.0316 -0.6251 -0.7799
vn 0.3050 -0.3419 0.8889
vn 0.2434 -0.1965 -0.9498
vn 0.0000 -0.7730 0.6344
vn 0.9999 -0.0020 0.0118
vn 0.5262 -0.7203 0.4519
vn 0.0976 -0.6990 -0.7085
vn 0.7646 -0.6444 0.0110
vn 0.1231 0.4445 -0.8873
vn -0.0560 0.9124 0.4055
vn 0.7343 0.6787 -0.0074
vn 0.5155 0.3703 0.7728
vn 0.1461 -0.9884 0.0405
vn -0.0024 -0.9998 0.0172
vn 0.1349 -0.1514 -0.9792
vn 0.1986 -0.3072 0.9307
vn 0.9162 -0.3997 0.0267
vn 0.1280 0.3813 -0.9155
vn 0.1269 0.3806 -0.9160
vn -0.1254 -0.4053 0.9056
vn -0.1334 -0.1767 0.9752
vn 0.1377 0.1794 -0.9741
vn 0.1398 0.0469 -0.9891
vn -0.1447 -0.0039 0.9895
vn 0.0555 -0.9125 -0.4052
vn -0.6180 -0.5647 -0.5470
vn -0.3050 -0.3419 0.8889
vn -0.2538 -0.1831 -0.9498
vn -0.9999 -0.0020 0.0118
vn -0.5262 -0.7203 0.4519
vn -0.0982 -0.6980 -0.7093
vn -0.7385 -0.6740 -0.0168
vn -0.1294 0.4508 -0.8832
vn 0.0561 0.9125 0.4052
vn -0.7343 0.6787 -0.0074
vn -0.1461 -0.9884 0.0405
vn -0.0320 -0.9994 -0.0122
vn -0.1383 -0.1421 -0.9801
vn -0.1986 -0.3072 0.9307
vn -0.9197 -0.3915 0.0303
vn -0.1280 0.3813 -0.9155
vn -0.1269 0.3806 -0.9160
vn 0.1327 -0.3988 0.9074
vn 0.1334 -0.1767 0.9752
vn -0.1337 0.1767 -0.9751
vn -0.1398 0.0469 -0.9891
vn 0.1397 -0.0073 0.9902
vn -0.0555 -0.9125 -0.4052
s off
f 1/1/1 12/2/1 9/3/1
f 50/4/2 7/5/2 49/6/2
f 7/5/3 1/7/3 2/8/3
f 5/9/4 22/10/4 4/11/4
f 7/5/5 21/12/5 24/13/5
f 5/9/6 3/14/6 6/15/6
f 6/15/7 58/16/7 52/17/7
f 9/18/8 14/19/8 10/20/8
f 5/9/9 52/17/9 51/21/9
f 1/22/10 4/23/10 2/24/10
f 3/14/11 11/25/11 6/15/11
f 8/26/12 57/27/12 12/2/12
f 3/28/13 9/18/13 10/20/13
f 79/29/14 31/30/14 88/31/14
f 69/32/15 27/33/15 80/34/15
f 10/35/16 15/36/16 11/25/16
f 11/25/17 64/37/17 58/16/17
f 57/38/18 16/39/18 12/40/18
f 12/40/19 13/41/19 9/42/19
f 19/43/20 17/44/20 20/45/20
f 20/45/20 70/46/20 19/43/20
f 13/47/21 18/48/21 14/19/21
f 15/36/22 18/49/22 19/50/22
f 64/37/22 19/50/22 70/51/22
f 24/52/23 22/53/23 23/54/23
f 75/55/24 23/54/24 76/56/24
f 49/6/25 24/13/25 75/57/25
f 51/21/26 23/58/26 5/9/26
f 2/24/27 22/59/27 21/60/27
f 25/61/28 28/62/28 26/63/28
f 79/29/29 27/64/29 25/61/29
f 16/65/30 85/66/30 29/67/30
f 20/45/31 28/68/31 27/33/31
f 17/44/32 26/69/32 28/68/32
f 30/70/33 36/71/33 32/72/33
f 13/73/34 32/72/34 26/74/34
f 13/75/35 29/67/35 30/76/35
f 26/63/36 31/30/36 25/61/36
f 91/77/37 37/78/37 33/79/37
f 94/80/38 39/81/38 100/82/38
f 32/83/39 35/84/39 31/30/39
f 30/76/40 33/79/40 34/85/40
f 31/30/41 94/80/41 88/31/41
f 29/67/42 91/77/42 33/79/42
f 97/86/43 39/87/43 37/88/43
f 37/88/44 40/89/44 38/90/44
f 34/91/45 40/92/45 36/71/45
f 36/93/46 39/81/46 35/84/46
f 34/85/47 37/78/47 38/94/47
f 41/95/48 56/96/48 48/97/48
f 47/98/49 50/4/49 49/6/49
f 47/98/50 41/99/50 48/100/50
f 72/101/51 45/102/51 44/103/51
f 47/98/52 71/104/52 42/105/52
f 43/106/53 45/102/53 46/107/53
f 58/16/54 46/107/54 52/17/54
f 60/108/55 53/109/55 54/110/55
f 51/21/56 46/107/56 45/102/56
f 44/111/57 41/112/57 42/113/57
f 55/114/58 43/106/58 46/107/58
f 48/97/59 57/27/59 50/115/59
f 43/116/60 53/117/60 41/95/60
f 79/29/61 86/118/61 77/119/61
f 69/32/62 81/120/62 68/121/62
f 61/122/63 54/123/63 55/114/63
f 64/37/17 55/114/17 58/16/17
f 62/124/64 57/38/64 56/125/64
f 59/126/65 56/125/65 53/127/65
f 65/128/20 67/129/20 68/121/20
f 68/121/20 70/46/20 69/32/20
f 66/130/66 59/131/66 60/108/66
f 61/122/67 66/132/67 60/133/67
f 64/37/22 67/134/22 61/122/22
f 72/135/68 74/136/68 73/137/68
f 75/55/69 73/137/69 74/136/69
f 49/6/70 74/138/70 47/98/70
f 73/139/71 51/21/71 45/102/71
f 42/113/72 72/140/72 44/111/72
f 82/141/73 77/119/73 78/142/73
f 81/143/74 79/29/74 77/119/74
f 62/144/75 85/66/75 63/145/75
f 68/121/76 82/146/76 65/128/76
f 65/147/77 78/148/77 59/131/77
f 79/149/78 69/150/78 63/151/78
f 85/152/78 94/153/78 88/154/78
f 93/155/79 84/156/79 87/157/79
f 87/157/80 59/131/80 78/148/80
f 59/158/81 83/159/81 62/144/81
f 85/152/78 79/149/78 63/151/78
f 86/160/82 78/148/82 77/161/82
f 95/162/83 91/77/83 89/163/83
f 94/80/84 98/164/84 92/165/84
f 92/165/85 87/166/85 86/118/85
f 84/167/86 89/163/86 83/159/86
f 94/80/87 86/118/87 88/31/87
f 83/159/88 91/77/88 85/66/88
f 98/168/89 97/86/89 95/169/89
f 99/170/90 95/169/90 96/171/90
f 99/172/91 90/173/91 93/155/91
f 91/174/78 100/175/78 94/153/78
f 98/164/92 93/176/92 92/165/92
f 90/177/93 95/162/93 89/163/93
f 1/1/94 8/26/94 12/2/94
f 50/4/2 8/178/2 7/5/2
f 7/5/3 8/178/3 1/7/3
f 5/9/95 23/58/95 22/10/95
f 7/5/96 2/8/96 21/12/96
f 5/9/6 4/11/6 3/14/6
f 6/15/97 11/25/97 58/16/97
f 9/18/8 13/47/8 14/19/8
f 5/9/9 6/15/9 52/17/9
f 1/22/98 3/28/98 4/23/98
f 3/14/99 10/35/99 11/25/99
f 8/26/100 50/115/100 57/27/100
f 3/28/101 1/22/101 9/18/101
f 79/29/102 25/61/102 31/30/102
f 69/32/103 20/45/103 27/33/103
f 10/35/16 14/179/16 15/36/16
f 11/25/17 15/36/17 64/37/17
f 57/38/18 63/180/18 16/39/18
f 12/40/19 16/39/19 13/41/19
f 19/43/20 18/181/20 17/44/20
f 20/45/20 69/32/20 70/46/20
f 13/47/104 17/182/104 18/48/104
f 15/36/105 14/179/105 18/49/105
f 64/37/22 15/36/22 19/50/22
f 24/52/106 21/183/106 22/53/106
f 75/55/107 24/52/107 23/54/107
f 49/6/108 7/5/108 24/13/108
f 51/21/109 76/184/109 23/58/109
f 2/24/110 4/23/110 22/59/110
f 25/61/111 27/64/111 28/62/111
f 79/29/112 80/185/112 27/64/112
f 16/65/113 63/145/113 85/66/113
f 20/45/31 17/44/31 28/68/31
f 17/44/32 13/186/32 26/69/32
f 30/70/33 34/91/33 36/71/33
f 13/73/34 30/70/34 32/72/34
f 13/75/35 16/65/35 29/67/35
f 26/63/36 32/83/36 31/30/36
f 91/77/114 97/187/114 37/78/114
f 94/80/115 35/84/115 39/81/115
f 32/83/39 36/93/39 35/84/39
f 30/76/40 29/67/40 33/79/40
f 31/30/116 35/84/116 94/80/116
f 29/67/117 85/66/117 91/77/117
f 97/86/118 100/188/118 39/87/118
f 37/88/44 39/87/44 40/89/44
f 34/91/45 38/189/45 40/92/45
f 36/93/46 40/190/46 39/81/46
f 34/85/47 33/79/47 37/78/47
f 41/95/119 53/117/119 56/96/119
f 47/98/49 48/100/49 50/4/49
f 47/98/50 42/105/50 41/99/50
f 72/101/120 73/139/120 45/102/120
f 47/98/121 74/138/121 71/104/121
f 43/106/53 44/103/53 45/102/53
f 58/16/97 55/114/97 46/107/97
f 60/108/55 59/131/55 53/109/55
f 51/21/56 52/17/56 46/107/56
f 44/111/122 43/191/122 41/112/122
f 55/114/123 54/123/123 43/106/123
f 48/97/124 56/96/124 57/27/124
f 43/116/125 54/192/125 53/117/125
f 79/29/126 88/31/126 86/118/126
f 69/32/127 80/34/127 81/120/127
f 61/122/63 60/133/63 54/123/63
f 64/37/17 61/122/17 55/114/17
f 62/124/64 63/180/64 57/38/64
f 59/126/65 62/124/65 56/125/65
f 65/128/20 66/193/20 67/129/20
f 68/121/20 67/129/20 70/46/20
f 66/130/128 65/147/128 59/131/128
f 61/122/22 67/134/22 66/132/22
f 64/37/22 70/51/22 67/134/22
f 72/135/129 71/194/129 74/136/129
f 75/55/130 76/56/130 73/137/130
f 49/6/131 75/57/131 74/138/131
f 73/139/132 76/184/132 51/21/132
f 42/113/133 71/195/133 72/140/133
f 82/141/134 81/143/134 77/119/134
f 81/143/135 80/185/135 79/29/135
f 62/144/136 83/159/136 85/66/136
f 68/121/76 81/120/76 82/146/76
f 65/147/77 82/196/77 78/148/77
f 79/149/78 80/197/78 69/150/78
f 85/152/78 91/174/78 94/153/78
f 93/155/79 90/173/79 84/156/79
f 87/157/80 84/156/80 59/131/80
f 59/158/81 84/167/81 83/159/81
f 85/152/78 88/154/78 79/149/78
f 86/160/82 87/157/82 78/148/82
f 95/162/137 97/187/137 91/77/137
f 94/80/138 100/82/138 98/164/138
f 92/165/85 93/176/85 87/166/85
f 84/167/86 90/177/86 89/163/86
f 94/80/139 92/165/139 86/118/139
f 83/159/140 89/163/140 91/77/140
f 98/168/141 100/188/141 97/86/141
f 99/170/90 98/168/90 95/169/90
f 99/172/91 96/198/91 90/173/91
f 91/174/78 97/199/78 100/175/78
f 98/164/92 99/200/92 93/176/92
f 90/177/93 96/201/93 95/162/93
