# Blender v2.78 (sub 0) OBJ File: 'stuff.blend'
# www.blender.org
o Cube.026
v -1.895683 0.898804 0.000000
v -1.377433 0.647989 -0.401029
v -2.100948 0.502786 -0.517950
v -2.479590 0.563474 0.000001
v -2.100948 0.502786 0.517951
v -1.377433 0.647989 0.401030
v -1.337424 0.549856 -0.320209
v -2.445847 -0.089935 -0.401029
v -2.445846 -0.089935 0.401030
v -1.337424 0.549856 0.320209
v -1.520990 -0.238320 0.401030
v -1.520991 -0.238320 -0.401029
v -1.452050 -0.157834 -0.320209
v -1.452050 -0.157834 0.320209
v -2.477795 -0.287966 -0.401029
v -2.477794 -0.287966 0.401030
v -1.552938 -0.436351 0.401030
v -1.552939 -0.436351 -0.401029
v -2.488364 -0.353846 -0.401029
v -2.488364 -0.353846 0.401030
v -1.563508 -0.502231 0.401030
v -1.563508 -0.502231 -0.401029
v -2.637847 -0.015472 -0.573603
v -2.637846 -0.015472 0.573605
v -1.314999 -0.227711 0.573604
v -1.315000 -0.227711 -0.573604
v -2.652965 -0.109702 -0.573603
v -2.652965 -0.109702 0.573605
v -1.330117 -0.321941 0.573604
v -1.330118 -0.321941 -0.573604
vt 0.8471 0.6956
vt 0.8935 0.7149
vt 0.8328 0.7388
vt 0.9758 0.2473
vt 0.9701 0.2986
vt 0.9161 0.2698
vt 0.8557 0.4215
vt 0.9011 0.4601
vt 0.8564 0.4656
vt 0.9758 0.3503
vt 0.9239 0.3342
vt 0.8911 0.5190
vt 0.8106 0.4601
vt 0.8210 0.5190
vt 0.9004 0.9031
vt 0.9636 0.8949
vt 0.9704 0.9039
vt 0.9636 0.8343
vt 0.9704 0.8281
vt 0.9004 0.8272
vt 0.9077 0.8337
vt 0.9122 0.0745
vt 0.8904 0.0176
vt 0.9722 0.0172
vt 0.9722 0.0940
vt 0.8122 0.7929
vt 0.8939 0.7929
vt 0.9077 0.8943
vt 0.8209 0.5363
vt 0.2596 0.7803
vt 0.2812 0.8797
vt 0.2596 0.8624
vt 0.9704 0.8111
vt 0.8941 0.8103
vt 0.8123 0.8103
vt 0.9722 0.0000
vt 0.3164 0.7989
vt 0.3832 0.8814
vt 0.3164 0.8810
vt 0.3234 0.9141
vt 0.3486 0.9999
vt 0.3234 0.9843
vt 0.3832 0.7993
vt 0.2964 0.7814
vt 0.3920 0.7820
vt 0.9967 0.4994
vt 0.9741 0.4019
vt 0.9967 0.4178
vt 0.4968 0.9586
vt 0.4886 0.8414
vt 0.4968 0.8413
vt 0.5933 0.8670
vt 0.5851 0.9676
vt 0.5851 0.8670
vt 0.1014 0.9983
vt 0.0933 0.8979
vt 0.1014 0.8978
vt 0.2894 0.7623
vt 0.2812 0.7623
vt 0.9761 0.1601
vt 1.0000 0.2453
vt 0.9761 0.2304
vt 0.9722 0.0990
vt 0.9954 0.0000
vt 0.9954 0.1173
vt 0.2964 0.8989
vt 0.8910 0.5363
vt 0.9004 0.8103
vt 0.8904 0.0005
vt 0.3486 0.8994
vt 0.9741 0.5185
vt 0.4886 0.9587
vt 0.5933 0.9676
vt 0.0933 0.9984
vt 0.2894 0.8797
vt 1.0000 0.1448
vt 0.9722 0.0170
vt 0.3920 0.8994
vn -0.0664 0.8052 -0.5893
vn 0.4356 0.9001 -0.0000
vn -0.4515 0.7861 -0.4221
vn -0.4515 0.7861 0.4221
vn -0.0664 0.8052 0.5893
vn -0.7468 0.3195 -0.5833
vn -0.7468 0.3195 0.5833
vn 0.9260 0.3775 -0.0000
vn 0.8152 -0.1320 -0.5639
vn -0.9987 -0.0516 0.0000
vn 0.7595 -0.6505 -0.0000
vn 0.9871 -0.1599 -0.0000
vn -0.0285 -0.1775 0.9837
vn 0.1647 -0.0267 0.9860
vn -0.0285 -0.1775 -0.9837
vn 0.1647 -0.0267 -0.9860
vn 0.8152 -0.1320 0.5639
vn -0.9872 0.1593 0.0000
vn -0.0992 -0.6181 0.7798
vn 0.9872 -0.1593 -0.0000
vn -0.0000 0.0000 -1.0000
vn 0.0000 -0.0000 1.0000
vn -0.1584 -0.9874 0.0000
vn 0.8623 0.5065 -0.0000
vn 0.6113 -0.7914 -0.0000
vn 0.0916 0.5706 0.8161
vn -0.9874 0.1584 0.0000
vn 0.9874 -0.1584 -0.0000
vn -0.6593 0.7519 0.0000
vn 0.0916 0.5706 -0.8161
vn -0.0992 -0.6181 -0.7798
vn -0.8292 -0.5590 0.0000
s off
f 1/1/1 2/2/1 3/3/1
f 2/4/2 1/5/2 6/6/2
f 1/7/3 3/8/3 4/9/3
f 1/5/4 4/10/4 5/11/4
f 1/5/5 5/11/5 6/6/5
f 4/9/6 3/8/6 8/12/6
f 5/13/7 4/9/7 9/14/7
f 6/15/8 7/16/8 2/17/8
f 2/17/9 13/18/9 12/19/9
f 4/9/10 8/12/10 9/14/10
f 11/20/11 13/18/11 14/21/11
f 7/16/12 14/21/12 13/18/12
f 5/22/13 9/23/13 11/24/13
f 6/25/14 5/22/14 11/24/14
f 8/26/15 3/3/15 12/27/15
f 2/2/16 12/27/16 3/3/16
f 11/20/17 10/28/17 6/15/17
f 8/12/18 16/29/18 9/14/18
f 21/30/19 28/31/19 20/32/19
f 11/20/20 18/33/20 12/19/20
f 8/26/21 18/34/21 15/35/21
f 9/23/22 17/36/22 11/24/22
f 22/37/23 20/38/23 19/39/23
f 15/40/24 24/41/24 16/42/24
f 21/43/25 30/44/25 29/45/25
f 18/46/26 23/47/26 15/48/26
f 26/49/21 27/50/21 23/51/21
f 24/52/27 27/53/27 28/54/27
f 25/55/28 30/56/28 26/57/28
f 25/58/22 28/31/22 29/59/22
f 17/60/29 26/61/29 18/62/29
f 17/63/30 24/64/30 25/65/30
f 22/37/31 27/66/31 30/44/31
f 20/38/32 27/66/32 19/39/32
f 6/15/8 10/28/8 7/16/8
f 2/17/9 7/16/9 13/18/9
f 11/20/11 12/19/11 13/18/11
f 7/16/12 10/28/12 14/21/12
f 11/20/17 14/21/17 10/28/17
f 8/12/18 15/67/18 16/29/18
f 21/30/19 29/59/19 28/31/19
f 11/20/20 17/68/20 18/33/20
f 8/26/21 12/27/21 18/34/21
f 9/23/22 16/69/22 17/36/22
f 22/37/23 21/43/23 20/38/23
f 15/40/24 23/70/24 24/41/24
f 21/43/25 22/37/25 30/44/25
f 18/46/26 26/71/26 23/47/26
f 26/49/21 30/72/21 27/50/21
f 24/52/27 23/73/27 27/53/27
f 25/55/28 29/74/28 30/56/28
f 25/58/22 24/75/22 28/31/22
f 17/60/29 25/76/29 26/61/29
f 17/63/30 16/77/30 24/64/30
f 22/37/31 19/39/31 27/66/31
f 20/38/32 28/78/32 27/66/32
