# Blender v2.78 (sub 0) OBJ File: 'stuff.blend'
# www.blender.org
o Cube.027
v -2.657375 -1.618479 -0.178252
v -2.632240 -2.315408 -0.164698
v -2.745076 -1.971257 0.177757
v -2.396864 -1.366072 0.164394
v -2.068823 -1.336211 -0.186326
v -2.214296 -1.922931 -0.389711
v -2.356195 -2.493731 0.186327
v -2.210722 -1.907011 0.389713
v -1.792778 -1.514534 0.164699
v -1.679942 -1.858685 -0.177755
v -2.028154 -2.463871 -0.164392
v -1.767643 -2.211464 0.178254
vt 0.0000 0.9551
vt 0.0007 0.8978
vt 0.0306 0.9228
vt 0.8639 0.3450
vt 0.8316 0.2939
vt 0.8784 0.3004
vt 0.0306 0.9828
vt 0.0007 0.9949
vt 0.8639 0.2473
vt 0.9161 0.3300
vt 0.0729 0.8978
vt 0.0933 0.9125
vt 0.0613 0.9398
vt 0.6777 0.8824
vt 0.6777 0.9419
vt 0.6410 0.9099
vt 0.9313 0.1355
vt 0.8904 0.1355
vt 0.9241 0.0940
vt 0.9161 0.2697
vt 0.0933 0.9670
vt 0.6256 0.9633
vt 0.6256 0.8670
vt 0.9442 0.5185
vt 0.9735 0.5373
vt 0.9426 0.5677
vt 0.0729 0.9859
vt 0.5933 0.9170
vt 0.9735 0.5983
vt 0.9442 0.6172
vn -0.9603 -0.0400 -0.2762
vn -0.4492 -0.0336 -0.8928
vn -0.8307 0.4840 0.2750
vn -0.4140 0.8542 -0.3145
vn -0.1865 0.3627 -0.9130
vn -0.1008 -0.4119 -0.9056
vn -0.7639 -0.5634 0.3145
vn -0.3827 0.2399 0.8922
vn 0.2281 0.9287 0.2924
vn 0.3341 0.2337 -0.9131
vn -0.2281 -0.9287 -0.2924
vn -0.3341 -0.2337 0.9131
vn 0.1008 0.4119 0.9056
vn 0.7639 0.5634 -0.3145
vn 0.3827 -0.2399 -0.8922
vn 0.4140 -0.8542 0.3145
vn 0.1865 -0.3627 0.9130
vn 0.4492 0.0336 0.8928
vn 0.9603 0.0400 0.2762
vn 0.8307 -0.4840 -0.2750
s off
f 1/1/1 2/2/1 3/3/1
f 2/4/2 1/5/2 6/6/2
f 1/1/3 3/3/3 4/7/3
f 1/1/4 4/7/4 5/8/4
f 1/5/5 5/9/5 6/6/5
f 2/4/6 6/6/6 11/10/6
f 3/11/7 2/12/7 7/13/7
f 4/14/8 3/15/8 8/16/8
f 5/17/9 4/18/9 9/19/9
f 6/6/10 5/9/10 10/20/10
f 2/12/11 11/21/11 7/13/11
f 3/15/12 7/22/12 8/16/12
f 4/14/13 8/16/13 9/23/13
f 5/24/14 9/25/14 10/26/14
f 6/6/15 10/20/15 11/10/15
f 7/13/16 11/21/16 12/27/16
f 8/16/17 7/22/17 12/28/17
f 9/23/18 8/16/18 12/28/18
f 10/26/19 9/25/19 12/29/19
f 11/30/20 10/26/20 12/29/20
