# Blender v2.78 (sub 0) OBJ File: 'stuff.blend'
# www.blender.org
o Cube.028
v 1.672415 -1.826463 -0.174384
v 1.984552 -2.450239 -0.174100
v 1.740503 -2.190585 0.174421
v 1.806119 -1.495334 0.174125
v 2.090724 -1.325312 -0.174586
v 2.200998 -1.915476 -0.389797
v 2.311168 -2.504630 0.174587
v 2.200893 -1.914467 0.389798
v 2.417340 -1.379703 0.174101
v 2.661388 -1.639357 -0.174421
v 2.595773 -2.334608 -0.174124
v 2.729476 -2.003479 0.174385
vt 0.0306 0.9410
vt 0.0313 0.8978
vt 0.0613 0.9124
vt 0.8638 0.2473
vt 0.8316 0.1957
vt 0.8770 0.2020
vt 0.0613 0.9721
vt 0.0313 0.9943
vt 0.8638 0.1492
vt 0.9159 0.2328
vt 0.6845 0.7183
vt 0.7050 0.7460
vt 0.6729 0.7715
vt 0.4853 0.8630
vt 0.4853 0.9227
vt 0.4467 0.8918
vt 0.3486 0.9270
vt 0.3804 0.8994
vt 0.3804 0.9529
vt 0.9159 0.1721
vt 0.7050 0.7972
vt 0.4331 0.9454
vt 0.4331 0.8487
vt 0.3639 0.9765
vt 0.9741 0.5185
vt 0.9426 0.5061
vt 0.9727 0.4788
vt 0.4009 0.8997
vt 0.9426 0.4461
vt 0.9741 0.4215
vn -0.8582 -0.4296 -0.2809
vn -0.3984 -0.1998 -0.8952
vn -0.9555 0.0903 0.2808
vn -0.7325 0.6113 -0.2998
vn -0.3240 0.2701 -0.9067
vn 0.0755 -0.3991 -0.9138
vn -0.4599 -0.8356 0.3005
vn -0.4441 0.0423 0.8950
vn -0.1766 0.9338 0.3111
vn 0.2032 0.3687 -0.9071
vn 0.1766 -0.9338 -0.3111
vn -0.2032 -0.3687 0.9071
vn -0.0755 0.3991 0.9138
vn 0.4599 0.8356 -0.3005
vn 0.4441 -0.0423 -0.8950
vn 0.7325 -0.6113 0.2998
vn 0.3240 -0.2701 0.9067
vn 0.3984 0.1998 0.8952
vn 0.8582 0.4296 0.2809
vn 0.9555 -0.0903 -0.2808
s off
f 1/1/1 2/2/1 3/3/1
f 2/4/2 1/5/2 6/6/2
f 1/1/3 3/3/3 4/7/3
f 1/1/4 4/7/4 5/8/4
f 1/5/5 5/9/5 6/6/5
f 2/4/6 6/6/6 11/10/6
f 3/11/7 2/12/7 7/13/7
f 4/14/8 3/15/8 8/16/8
f 5/17/9 4/18/9 9/19/9
f 6/6/10 5/9/10 10/20/10
f 2/12/11 11/21/11 7/13/11
f 3/15/12 7/22/12 8/16/12
f 4/14/13 8/16/13 9/23/13
f 5/17/14 9/19/14 10/24/14
f 6/6/15 10/20/15 11/10/15
f 7/25/16 11/26/16 12/27/16
f 8/16/17 7/22/17 12/28/17
f 9/23/18 8/16/18 12/28/18
f 10/29/19 9/30/19 12/27/19
f 11/26/20 10/29/20 12/27/20
